<?xml version="1.0" encoding="UTF-8"?><svg xmlns="http://www.w3.org/2000/svg" xmlns:xlink="http://www.w3.org/1999/xlink" version="1.1" x="0px" y="0px" viewBox="0 0 32 32" xml:space="preserve"><g id="Flat_copy"><path d="M29.458 22.818V22.6c-2.624-1.399-4.049-3.454-4.049-6.427 0-2.404 1.068-4.504 3.025-5.858l.089-.044c-1.29-1.573-3.025-3.146-5.695-3.146-1.868 0-3.426 1.792-6.006 1.792-2.046 0-2.892-1.705-5.117-1.705-4.627 0-9.209 4.066-9.209 9.355 0 2.798.934 7.127 3.025 10.887C7.036 30.208 8.904 32 10.995 32c1.512 0 3.292-1.355 5.428-1.355 1.868 0 3.605 1.225 5.294 1.225 4.05 0 7.786-5.159 7.786-8.611 0-.178-.045-.309-.045-.441z"/><path d="M16.73 8.35c3.025-.918 5.829-3.148 5.829-7.039 0-.306-.044-.699-.089-1.136L22.426 0c-3.069.829-5.828 3.19-5.828 6.907 0 .35.045.787.133 1.268l-.001.175z"/></g><metadata><rdf:RDF xmlns:rdf="http://www.w3.org/1999/02/22-rdf-syntax-ns#" xmlns:rdfs="http://www.w3.org/2000/01/rdf-schema#" xmlns:dc="http://purl.org/dc/elements/1.1/"><rdf:Description about="https://iconscout.com/legal#licenses" dc:title="apple,online,social,media,mac" dc:description="apple,online,social,media,mac" dc:publisher="Iconscout" dc:date="2017-09-15" dc:format="image/svg+xml" dc:language="en"><dc:creator><rdf:Bag><rdf:li>Epicflaticon by Alfredo</rdf:li></rdf:Bag></dc:creator></rdf:Description></rdf:RDF></metadata></svg>