<svg xmlns="http://www.w3.org/2000/svg" width="48" height="48" viewBox="0 0 48 48"><g transform="translate(0 -1004.362)"><circle cx="24" cy="1028.362" r="24" fill="#fcd062"/><g transform="translate(-1433.504 -99)"><rect width="25.008" height="19" x="1445" y="1115.362" fill="#78c8f0" rx="0" ry="0"/><rect width="19.048" height="12" x="1447.984" y="1118.362" fill="#34485c" rx="0" ry="0"/><circle cx="16" cy="22" r="1" fill="#34485c" transform="translate(1441.504 1110.331)"/><path fill="none" stroke="#34485c" d="M1457.5082 1134.354l0 5.9337M1453.5082 1139.8622l8 0"/><path fill="none" stroke="#e9eded" d="M1454.0082 1122.3622l-2.9779 0 0 2 2.4918 0 0 2-3 0M1459.0082 1126.37l-3 0 0-2.0039 0-2.0039 3 0M1455.9597 1124.3622l2.5485 0"/><rect width="3" height="4" x="1461.008" y="1122.362" fill="none" stroke="#e9eded"/></g></g></svg>